<?xml version="1.0" encoding="UTF-8"?>
<svg width="60px" height="59px" viewBox="0 0 60 59" version="1.1" xmlns="http://www.w3.org/2000/svg" xmlns:xlink="http://www.w3.org/1999/xlink">
    <!-- Generator: Sketch 55.2 (78181) - https://sketchapp.com -->
    <title>Primary Logo@1x</title>
    <desc>Created with Sketch.</desc>
    <g id="All-Web" stroke="none" stroke-width="1" fill="none" fill-rule="evenodd">
        <g id="iPhone" transform="translate(-14.000000, -20.000000)">
            <g id="Primary-Logo" transform="translate(14.000000, 20.000000)">
                <polygon id="Fill-1" fill="#FFFFFF" points="20.6882689 14.5362319 18.3576899 13.7893027 20.1223249 8.87796387 15.6191825 12.9116568 14.5122175 12.5567966 13.5337203 6.73561811 11.7591504 11.6744592 9.42857143 10.9275299 12.7403882 1.71014493 15.1000866 2.46645729 16.2766812 9.36370245 21.6548613 4.56730698 24 5.31892778"></polygon>
                <g id="Group-30">
                    <path d="M27.9478052,12.6381524 C28.311512,11.5650079 27.7545322,10.5520926 26.8495628,10.244719 C25.87493,9.91358153 24.9145409,10.4110662 24.5507522,11.4842107 C24.1822156,12.5712857 24.646611,13.5371649 25.621162,13.8682204 C26.5261314,14.175676 27.5792686,13.7252274 27.9478052,12.6381524 L27.9478052,12.6381524 Z M28.9895638,16.8929537 L26.7619719,16.1362787 L26.9509063,15.5788107 C26.2425661,15.882169 25.4241234,15.9149468 24.519154,15.6075732 C22.6674662,14.9785676 21.6136741,12.9575718 22.3649093,10.7416301 C23.1113965,8.53970097 25.1809154,7.56423431 27.0326032,8.19323986 C27.9375726,8.50061347 28.567081,9.02530375 28.9447041,9.69749403 L29.1336385,9.14002597 L31.3612303,9.89670097 L28.9895638,16.8929537 Z" id="Fill-2" fill="#FFFFFF"></path>
                    <polygon id="Fill-4" fill="#FFFFFF" points="37.1338629 19.7280676 34.5721159 18.8578996 33.920587 16.3830135 31.8850402 17.9451204 29.3372914 17.0796232 32.7825603 14.4733801 31.7137059 10.0694399 34.2614547 10.9349371 34.8749184 13.5678121 36.9485304 11.8477162 39.5102774 12.7178843 35.9707869 15.5563579"></polygon>
                    <path d="M30.4252849,34.9955468 L27.3485525,28.2799537 L29.4867526,27.2983412 L32.5634849,34.0139343 L30.4252849,34.9955468 Z M28.7534449,25.2388315 C29.0660707,25.921019 28.7777575,26.6686801 28.0561559,26.9999815 C27.3343906,27.3312829 26.5936337,27.0560315 26.2810897,26.373844 C25.980743,25.7182885 26.2312366,24.9232635 26.95292,24.592044 C27.6745216,24.2607426 28.4530982,24.583276 28.7534449,25.2388315 L28.7534449,25.2388315 Z" id="Fill-6" fill="#FFFFFF"></path>
                    <path d="M34.4688323,30.6117567 C34.8259084,31.1440678 35.4452661,31.1188289 36.0198459,30.8550497 C36.5811644,30.5973344 36.778203,30.2154733 36.6432966,29.9211289 C36.5391699,29.6937331 36.2857293,29.5994969 35.748396,29.7329025 L34.2626254,30.0911636 C32.9156085,30.4343469 31.9009458,30.09059 31.4167401,29.0337525 C30.7855126,27.6559386 31.5642529,26.2135525 33.2614697,25.4344247 C34.931918,24.6675067 36.3905109,24.9207969 37.1909443,25.9619831 L35.4175972,27.2456428 C35.1607185,26.8615692 34.588267,26.6710483 33.9334637,26.9717025 C33.3587201,27.2354817 33.3003535,27.602265 33.4106198,27.8430997 C33.4964916,28.0304247 33.6624231,28.1808747 34.13304,28.0781983 L35.8570251,27.6753594 C37.2492291,27.3600372 38.1865335,27.8526053 38.6401233,28.8425761 C39.3203853,30.3274094 38.392986,31.6923581 36.628971,32.502215 C35.0519257,33.2261122 33.438698,33.2705261 32.5802254,31.9969456 L34.4688323,30.6117567 Z" id="Fill-8" fill="#FFFFFF"></path>
                    <path d="M45.4607031,27.8045612 C45.0681813,28.3248265 44.6183571,28.7903529 43.8565619,29.1400918 C42.1861136,29.9070099 40.7670593,29.4574626 39.9580306,27.6916418 L38.7935629,25.149889 L37.5774412,25.7081765 L36.7990283,24.0092224 L38.01515,23.4509349 L37.1081341,21.4710751 L39.2463341,20.4894626 L40.1534319,22.4693224 L42.131267,21.561296 L42.909598,23.2602501 L40.9317629,24.1682765 L41.9981615,26.4959904 C42.3169269,27.1916168 42.779767,27.3191224 43.3410036,27.061489 C43.635047,26.9264446 43.986884,26.6353779 44.1939096,26.3460321 L45.4607031,27.8045612 Z" id="Fill-10" fill="#FFFFFF"></path>
                    <path d="M45.8951866,22.9824011 L48.6615034,21.7124261 C48.1300641,21.0821094 47.442271,20.9930358 46.8275794,21.2752525 C46.2261492,21.5513233 45.7830376,22.2081081 45.8951866,22.9824011 L45.8951866,22.9824011 Z M51.3736284,22.0540525 L46.4556865,24.3118678 C46.9971946,25.0346178 47.7718419,25.2781567 48.4935254,24.9468553 C48.9879636,24.7198692 49.5074513,24.3356317 49.5679463,23.5144664 L51.6433592,23.0311581 C51.7184254,24.7130678 50.8148476,25.9536247 49.2779959,26.6591664 C47.3401907,27.5487553 45.0807551,26.8535386 44.1062041,24.7265067 C43.1378746,22.6129136 44.0796813,20.4318803 46.0308297,19.5361456 C47.9284413,18.6649942 50.0771195,19.3300553 51.1223162,21.5055983 L51.3736284,22.0540525 Z" id="Fill-12" fill="#FFFFFF"></path>
                    <path d="M58.1098508,17.2068747 L59.9975572,21.3272053 L57.8727005,22.3026719 L56.1934112,18.637215 C55.8317509,17.8479261 55.1189084,17.5276053 54.4373367,17.8404692 C53.5954818,18.2270011 53.3110161,19.0537386 53.90557,20.3514108 L55.333547,23.4683317 L53.195347,24.4499442 L50.1186147,17.7343511 L52.2568966,16.7527386 L52.5511037,17.3948553 C52.8137127,16.6266261 53.3810069,15.9938511 54.2230255,15.6073192 C55.786482,14.8895678 57.3375775,15.5213594 58.1098508,17.2068747" id="Fill-14" fill="#FFFFFF"></path>
                    <path d="M10.9312611,42.939274 C10.3578273,43.2483685 9.75508741,43.4838768 8.91707999,43.4838768 C7.07922666,43.4838768 5.97656379,42.4830893 5.97656379,40.5403504 L5.97656379,37.7440782 L4.63863341,37.7440782 L4.63863341,35.8749254 L5.97656379,35.8749254 L5.97656379,33.6968421 L8.32891126,33.6968421 L8.32891126,35.8749254 L10.5048491,35.8749254 L10.5048491,37.7440782 L8.32891126,37.7440782 L8.32891126,40.304924 C8.32891126,41.0702032 8.69646556,41.3792157 9.3139404,41.3792157 C9.63745366,41.3792157 10.0785188,41.2614615 10.3872972,41.0848712 L10.9312611,42.939274 Z" id="Fill-17" fill="#FFFFFF"></path>
                    <path d="M11.4669572,43.2630611 L13.8193047,43.2630611 L13.8193047,35.87495 L11.4669572,35.87495 L11.4669572,43.2630611 Z M14.0104493,33.6968667 C14.0104493,34.4473958 13.4370155,35.0066667 12.6431309,35.0066667 C11.8491646,35.0066667 11.2904657,34.4473958 11.2904657,33.6968667 C11.2904657,32.9756736 11.8491646,32.3575667 12.6431309,32.3575667 C13.4370155,32.3575667 14.0104493,32.9756736 14.0104493,33.6968667 L14.0104493,33.6968667 Z" id="Fill-19" fill="#FFFFFF"></path>
                    <path d="M20.8610965,39.5689892 C20.8610965,38.4357794 20.008436,37.6557503 19.0527948,37.6557503 C18.0236428,37.6557503 17.2738812,38.4357794 17.2738812,39.5689892 C17.2738812,40.7169489 18.0236428,41.48231 19.0527948,41.48231 C20.008436,41.48231 20.8610965,40.7169489 20.8610965,39.5689892 L20.8610965,39.5689892 Z M23.2134439,43.2630447 L20.8610965,43.2630447 L20.8610965,42.6743558 C20.2877445,43.1894586 19.523248,43.4838031 18.5676068,43.4838031 C16.6122016,43.4838031 14.9654929,41.9090767 14.9654929,39.5689892 C14.9654929,37.2437336 16.6122016,35.6542572 18.5676068,35.6542572 C19.523248,35.6542572 20.2877445,35.9486017 20.8610965,36.4636225 L20.8610965,35.8749336 L23.2134439,35.8749336 L23.2134439,43.2630447 Z" id="Fill-21" fill="#FFFFFF"></path>
                    <polygon id="Fill-22" fill="#FFFFFF" points="24.6317042 43.2630611 26.9839698 43.2630611 26.9839698 32.6665792 24.6317042 32.6665792"></polygon>
                    <path d="M23.7801816,57.6504242 L20.5795941,50.9931756 L22.6992936,49.9719839 L25.8998811,56.6293144 L23.7801816,57.6504242 Z M21.9280026,47.9263228 C22.2531531,48.6026922 21.9787562,49.3555158 21.2633761,49.7001742 C20.5479959,50.0448325 19.8022454,49.7833478 19.4771768,49.1070603 C19.1647147,48.4572408 19.4003096,47.6577089 20.1156898,47.3131325 C20.8311518,46.9684742 21.6156224,47.2765033 21.9280026,47.9263228 L21.9280026,47.9263228 Z" id="Fill-23" fill="#FFFFFF"></path>
                    <path d="M27.6407459,53.0074765 C28.0076453,53.5330682 28.6263481,53.4963571 29.1960163,53.2219251 C29.7524231,52.9538849 29.9423398,52.5683362 29.8021125,52.276614 C29.693729,52.0511849 29.4385694,51.9617015 28.9038557,52.1050224 L27.4250431,52.4907349 C26.0844932,52.8589112 25.063691,52.5340835 24.5599206,51.4864238 C23.9033163,50.1204918 24.6551245,48.6639293 26.3376882,47.8534168 C27.993729,47.0556057 29.4566606,47.2817724 30.2762494,48.3078807 L28.5269693,49.6242363 C28.2631324,49.2450793 27.687079,49.0652113 27.038006,49.3779932 C26.4683378,49.6524251 26.4167656,50.0201918 26.5314523,50.258896 C26.6207623,50.4445821 26.7895589,50.5919182 27.2580474,50.4805557 L28.9743377,50.0457585 C30.360484,49.7047057 31.3067112,50.1798196 31.7785559,51.1611863 C32.4861593,52.6331543 31.5842187,54.0149835 29.8355117,54.8574543 C28.2722189,55.6105237 26.6600554,55.6849293 25.7780888,54.4274918 L27.6407459,53.0074765 Z" id="Fill-24" fill="#FFFFFF"></path>
                    <path d="M42.712453,43.3338693 L44.714355,47.4979582 L42.6079169,48.5127582 L40.8227,44.7995276 C40.4594025,44.0435901 39.7396837,43.8023457 39.1170516,44.1022624 C38.3353643,44.478879 38.0928112,45.2979957 38.6283436,46.4119485 L40.1968754,49.6743207 L38.077094,50.6954304 L36.2919589,46.9821999 C35.9285795,46.2262624 35.2088607,45.9850179 34.5728854,46.2914082 C33.8046232,46.6615513 33.5753316,47.4742763 34.110782,48.588229 L35.679232,51.8506012 L33.5595325,52.871711 L30.3590269,46.2144624 L32.4786445,45.1932707 L32.7719512,45.8033471 C32.9801228,45.0823999 33.4826653,44.4647026 34.3438393,44.0498179 C35.2711567,43.6030568 36.25725,43.6179707 37.0583383,44.1303693 C37.2567685,43.1854679 37.8412535,42.3649582 38.8745804,41.8671457 C40.2920793,41.1843026 41.9346131,41.7159582 42.712453,43.3338693" id="Fill-25" fill="#FFFFFF"></path>
                    <path d="M24.6017514,29.0263611 L16.8201604,15.5345361 C16.7485323,15.4103083 16.6160818,15.3337722 16.4728257,15.3337722 C16.3294877,15.3337722 16.197119,15.4103083 16.1254091,15.5345361 L8.34389995,29.0263611 C8.27227188,29.1505889 8.27227188,29.3036611 8.34389995,29.4278889 C8.41552801,29.5521167 8.54806039,29.6286528 8.69131652,29.6286528 L24.2544166,29.6286528 C24.3976728,29.6286528 24.5300414,29.5521167 24.6017514,29.4278889 C24.6734613,29.3036611 24.6734613,29.1505889 24.6017514,29.0263611" id="Fill-26" fill="#FEDA01"></path>
                    <path d="M20.245308,58.4410569 L15.1255795,47.0338167 C15.0617282,46.8914792 14.920273,46.7998653 14.7643285,46.7998653 L5.51579478,46.7998653 C5.35985025,46.7998653 5.21847692,46.8914792 5.15446189,47.0338167 L0.0348153321,58.4410569 C-0.0202768816,58.5637278 -0.00947127655,58.7059833 0.0635484182,58.8188208 C0.136568113,58.9318222 0.261733038,59 0.396066356,59 L19.8840569,59 C20.0184721,59 20.143637,58.9318222 20.2165749,58.8188208 C20.2895946,58.7059833 20.3004002,58.5637278 20.245308,58.4410569" id="Fill-27" fill="#D9C3ED"></path>
                    <path d="M58.2575847,37.0612024 L49.5685685,28.3632912 C49.4192546,28.2136607 49.1548448,28.2136607 49.0055309,28.3632912 L40.3164328,37.0612024 C40.2416941,37.1359357 40.1997814,37.237301 40.1997814,37.3430912 C40.1997814,37.4487996 40.2416941,37.5501649 40.3164328,37.6248982 L49.0055309,46.3228093 C49.0832167,46.4006565 49.1851332,46.4395801 49.2870497,46.4395801 C49.3889662,46.4395801 49.4908827,46.4006565 49.5685685,46.3228093 L58.2575847,37.6248982 C58.4131199,37.4692857 58.4131199,37.2168149 58.2575847,37.0612024" id="Fill-28" fill="#EF4832"></path>
                    <path d="M46.7699904,0.0550830556 C42.5752054,0.0550830556 39.1624352,3.47118306 39.1624352,7.67026222 C39.1624352,11.8692594 42.5752054,15.2854414 46.7699904,15.2854414 C50.9646936,15.2854414 54.377382,11.8692594 54.377382,7.67026222 C54.377382,3.47118306 50.9646936,0.0550830556 46.7699904,0.0550830556" id="Fill-29" fill="#91D3ED"></path>
                </g>
            </g>
        </g>
    </g>
</svg>