<?xml version="1.0" encoding="UTF-8"?>
<svg width="98px" height="98px" viewBox="0 0 98 98" version="1.1" xmlns="http://www.w3.org/2000/svg" xmlns:xlink="http://www.w3.org/1999/xlink">
    <!-- Generator: Sketch 53.2 (72643) - https://sketchapp.com -->
    <title>Article ico@2x</title>
    <desc>Created with Sketch.</desc>
    <defs>
        <polygon id="path-1" points="0 0 97.9992462 0 97.9992462 98 0 98"></polygon>
    </defs>
    <g id="Page-1" stroke="none" stroke-width="1" fill="none" fill-rule="evenodd">
        <g id="Home" transform="translate(-1215.000000, -1527.000000)">
            <g id="The-latest" transform="translate(0.000000, 860.000000)">
                <g id="Article-ico" transform="translate(1215.000000, 667.000000)">
                    <g id="Group-3">
                        <mask id="mask-2" fill="white">
                            <use xlink:href="#path-1"></use>
                        </mask>
                        <g id="Clip-2"></g>
                        <path d="M97.3701238,47.4691269 L50.5178315,0.604773077 C49.7131008,-0.201842308 48.2868238,-0.201842308 47.4817162,0.604773077 L0.629046923,47.4691269 C0.226116154,47.8720577 -3.76923077e-05,48.4182192 -3.76923077e-05,48.98775 C-3.76923077e-05,49.5576577 0.226116154,50.1038192 0.629046923,50.50675 L47.4817162,97.3707269 C47.9004777,97.7902423 48.4504085,98.0001885 48.9999623,98.0001885 C49.5491392,98.0001885 50.09907,97.7902423 50.5178315,97.3707269 L97.3701238,50.50675 C98.2091546,49.6680962 98.2091546,48.3081577 97.3701238,47.4691269" id="Fill-1" fill="#EF4832" mask="url(#mask-2)"></path>
                    </g>
                    <path d="M32,39 C33.6572,39 35,37.6567582 35,36 C35,34.3428419 33.6572,33 32,33 C30.3432,33 29,34.3428419 29,36 C29,37.6567582 30.3432,39 32,39" id="Fill-4" fill="#000000"></path>
                    <path d="M65,33 C63.3432,33 62,34.3428419 62,36 C62,37.6567582 63.3432,39 65,39 C66.6572,39 68,37.6567582 68,36 C68,34.3428419 66.6572,33 65,33" id="Fill-6" fill="#000000"></path>
                    <path d="M48.5,36.3242016 L50.9926011,43.2149992 L46.0073989,43.2149992 L48.5,36.3242016 Z M41.9505072,47 L55.0494928,47 C55.3593098,47 55.6493593,46.8494021 55.8272665,46.5973967 C56.0051736,46.3453913 56.04851,46.0230059 55.9439705,45.7327834 L49.3944777,27.6258514 C49.2583863,27.2504919 48.9006713,27 48.5,27 C48.0993287,27 47.7416137,27.2504919 47.6055223,27.6258514 L41.0560295,45.7327834 C40.95149,46.0230059 40.9948264,46.3453913 41.1727335,46.5973967 C41.3506407,46.8494021 41.6406902,47 41.9505072,47 L41.9505072,47 Z" id="Fill-8" fill="#000000"></path>
                    <path d="M64.279526,55.3381289 C64.0926289,55.1640423 63.849964,55.0740383 63.5982557,55.089039 C63.3488082,55.1040397 63.1155635,55.2220711 62.9493908,55.4174745 C62.7199142,55.686302 62.4994811,55.9669722 62.2794247,56.2480372 C61.3264752,57.4662485 60.8223049,58.0512742 59.7830662,58.0512742 C58.744581,58.0512742 58.2404108,57.4662485 57.2867076,56.2476424 C56.2143096,54.877056 54.7447552,53 51.8776167,53 C49.0097246,53 47.5405469,54.8774508 46.4677722,56.2484319 C45.5151994,57.4662485 45.0110292,58.0512742 43.972544,58.0512742 C42.9348125,58.0512742 42.4310191,57.4662485 41.4784463,56.2488267 C40.4064252,54.8774508 38.9380011,53 36.0701091,53 L35.9544287,53 C33.0872903,53 31.6181126,54.8766613 30.5453378,56.2476424 C30.4375705,56.3850169 30.33018,56.5223913 30.2212822,56.657792 C30.0603849,56.8583271 29.9820086,57.1172858 30.0034867,57.3782183 C30.0253416,57.6387561 30.1444132,57.8799509 30.3358321,58.0489057 L31.7775028,59.320014 C32.1754129,59.6709505 32.7696404,59.6172639 33.1046235,59.2004035 C33.2123908,59.0661871 33.3186509,58.9311812 33.4245342,58.7953858 L33.4588238,58.7511733 C34.4117733,57.5337515 34.9159436,56.9487258 35.9544287,56.9487258 L36.0701091,56.9487258 C37.1082174,56.9487258 37.6120108,57.5337515 38.5642068,58.7511733 C39.6366047,60.1221545 41.104652,62 43.972544,62 C46.8408129,62 48.3096138,60.1225492 49.3823886,58.7515681 C50.3349613,57.5337515 50.8391315,56.9487258 51.8776167,56.9487258 C52.9164787,56.9487258 53.4206489,57.5337515 54.3739753,58.7523576 C55.44675,60.122944 56.9159277,62 59.7830662,62 C62.6520887,62 64.1208895,60.1225492 65.2109975,58.7298566 C65.3914889,58.4989254 65.5723572,58.2675995 65.7607616,58.0461424 C65.9269343,57.8507391 66.0124699,57.5945436 65.998528,57.3332164 C65.9838324,57.0718891 65.8715434,56.8267468 65.685023,56.6526602 L64.279526,55.3381289 Z" id="Fill-10" fill="#000000"></path>
                </g>
            </g>
        </g>
    </g>
</svg>