<?xml version="1.0" encoding="UTF-8"?>
<svg width="86px" height="86px" viewBox="0 0 86 86" version="1.1" xmlns="http://www.w3.org/2000/svg" xmlns:xlink="http://www.w3.org/1999/xlink">
    <!-- Generator: Sketch 53.2 (72643) - https://sketchapp.com -->
    <title>FAQ ico@2x</title>
    <desc>Created with Sketch.</desc>
    <defs>
        <polygon id="path-1" points="0 0.000119444444 85.9999602 0.000119444444 85.9999602 86 0 86"></polygon>
    </defs>
    <g id="Page-1" stroke="none" stroke-width="1" fill="none" fill-rule="evenodd">
        <g id="Home" transform="translate(-859.000000, -1527.000000)">
            <g id="The-latest" transform="translate(0.000000, 860.000000)">
                <g id="FAQ-ico" transform="translate(859.000000, 667.000000)">
                    <g id="Group-3">
                        <mask id="mask-2" fill="white">
                            <use xlink:href="#path-1"></use>
                        </mask>
                        <g id="Clip-2"></g>
                        <path d="M43.0003583,0.000119444444 C19.2898398,0.000119444444 -3.98148148e-05,19.2896009 -3.98148148e-05,43.0001194 C-3.98148148e-05,66.710638 19.2898398,86.0001194 43.0003583,86.0001194 C66.7104787,86.0001194 85.9999602,66.710638 85.9999602,43.0001194 C85.9999602,19.2896009 66.7104787,0.000119444444 43.0003583,0.000119444444" id="Fill-1" fill="#91D3ED" mask="url(#mask-2)"></path>
                    </g>
                    <path d="M68.7583139,36.0461037 C70.4098324,36.0461037 71.7488046,34.7075296 71.7488046,33.055613 C71.7488046,31.4044926 70.4098324,30.0655204 68.7583139,30.0655204 C67.1071935,30.0655204 65.7678231,31.4044926 65.7678231,33.055613 C65.7678231,34.7075296 67.1071935,36.0461037 68.7583139,36.0461037" id="Fill-4" fill="#000000"></path>
                    <path d="M19.1285898,36.0461037 C20.7801083,36.0461037 22.1190806,34.7075296 22.1190806,33.055613 C22.1190806,31.4044926 20.7801083,30.0655204 19.1285898,30.0655204 C17.4774694,30.0655204 16.1380991,31.4044926 16.1380991,33.055613 C16.1380991,34.7075296 17.4774694,36.0461037 19.1285898,36.0461037" id="Fill-6" fill="#000000"></path>
                    <path d="M43.7309602,46.25295 L43.7313583,46.25295 L43.7345435,46.25295 C45.4437935,46.25295 46.9551639,45.5629593 48.2260528,44.2020889 C51.5362565,40.6609593 52.1904139,33.3696722 51.9885528,30.3931167 C51.9706361,30.1295426 51.8492009,29.883487 51.6497287,29.7094963 C51.4510528,29.5359037 51.1902657,29.4487093 50.9262935,29.4662278 L48.9375435,29.6012 C48.3884972,29.6386259 47.9732287,30.1140148 48.0110528,30.6634593 C48.1910157,33.3167185 47.4436917,39.2001537 45.3139972,41.4795519 C44.8071546,42.0210333 44.3158398,42.2635056 43.7210065,42.2654963 L43.7058769,42.2654963 C42.6894046,42.2599222 41.8799694,40.8568481 41.4873954,40.0199407 C40.6680065,38.2720704 40.3128583,36.1821907 40.4621639,33.9760519 C40.4995898,33.4266074 40.0839231,32.9516167 39.5348769,32.9141907 L37.5461269,32.7796167 C37.0050435,32.742987 36.5220898,33.156663 36.4842657,33.7065056 C36.2891731,36.5847185 36.7709324,39.3530426 37.876988,41.7128667 C39.6368028,45.4650148 42.0312657,46.25295 43.7309602,46.25295" id="Fill-8" fill="#000000"></path>
                    <path d="M76.1516463,50.8483759 L74.7461833,49.43495 C74.5594519,49.2474222 74.3062296,49.141913 74.0418593,49.1411167 L74.0390722,49.1411167 C73.7758963,49.1411167 73.5230722,49.2454315 73.3367389,49.4309685 C65.4888407,57.2374593 55.0704981,61.536663 44.000387,61.536663 C32.9302759,61.536663 22.5119333,57.2374593 14.6640352,49.4309685 C14.2742481,49.0431722 13.6427852,49.0443667 13.2545907,49.4345519 L11.8483315,50.8483759 C11.6619981,51.0359037 11.5576833,51.2895241 11.5584796,51.5538944 C11.5592759,51.8182648 11.6647852,52.071487 11.852313,52.2578204 C20.452313,60.8124315 31.8692111,65.5233204 44.000387,65.5233204 C56.1307667,65.5233204 67.5484611,60.8124315 76.1476648,52.2578204 C76.5386463,51.8696259 76.5402389,51.2385611 76.1516463,50.8483759" id="Fill-10" fill="#000000"></path>
                </g>
            </g>
        </g>
    </g>
</svg>