<?xml version="1.0" encoding="UTF-8"?>
<svg width="200px" height="20px" viewBox="0 0 200 20" version="1.1" xmlns="http://www.w3.org/2000/svg" xmlns:xlink="http://www.w3.org/1999/xlink">
    <!-- Generator: Sketch 55.2 (78181) - https://sketchapp.com -->
    <title>Footer Logo</title>
    <desc>Created with Sketch.</desc>
    <defs>
        <polygon id="path-1" points="0 19.9043062 199.914065 19.9043062 199.914065 0.0174162679 0 0.0174162679"></polygon>
    </defs>
    <g id="All-Web" stroke="none" stroke-width="1" fill="none" fill-rule="evenodd">
        <g id="iPhone" transform="translate(-38.000000, -9216.000000)">
            <g id="Group-20" transform="translate(0.000000, 9174.000000)">
                <g id="Footer-Logo" transform="translate(38.000000, 42.000000)">
                    <polygon id="Fill-1" fill="#FFFFFF" points="15.5837893 2.71533014 9.85435476 13.4286316 4.12511358 2.71533014 2.89995167e-05 2.71533014 2.89995167e-05 19.6045167 4.07426776 19.6045167 4.07426776 10.5548517 8.88673755 19.6045167 10.821972 19.6045167 15.6091155 10.605378 15.6091155 19.6045167 19.6833543 19.6045167 19.6833543 2.71533014"></polygon>
                    <g id="Group-22" transform="translate(0.000000, 0.078278)">
                        <path d="M32.0076462,13.1989952 C32.0076462,11.258134 30.5307975,9.92215311 28.8756984,9.92215311 C27.0931948,9.92215311 25.7946931,11.258134 25.7946931,13.1989952 C25.7946931,15.165311 27.0931948,16.4760287 28.8756984,16.4760287 C30.5307975,16.4760287 32.0076462,15.165311 32.0076462,13.1989952 L32.0076462,13.1989952 Z M36.0816916,19.5261722 L32.0076462,19.5261722 L32.0076462,18.5178469 C31.0146061,19.4001435 29.6904882,19.9042584 28.0353891,19.9042584 C24.6487289,19.9042584 21.7968197,17.2071292 21.7968197,13.1989952 C21.7968197,9.21631579 24.6487289,6.49392344 28.0353891,6.49392344 C29.6904882,6.49392344 31.0146061,6.99803828 32.0076462,7.88023923 L32.0076462,6.87191388 L36.0816916,6.87191388 L36.0816916,19.5261722 Z" id="Fill-2" fill="#FFFFFF"></path>
                        <polygon id="Fill-4" fill="#FFFFFF" points="52.378579 19.5261914 47.6932238 19.5261914 45.2487579 15.8711675 42.7787724 19.5261914 38.1190333 19.5261914 42.3204833 13.4006411 38.1190333 6.84676555 42.7787724 6.84676555 45.2487579 10.77911 47.6932238 6.84676555 52.378579 6.84676555 48.1515128 13.4006411"></polygon>
                        <mask id="mask-2" fill="white">
                            <use xlink:href="#path-1"></use>
                        </mask>
                        <g id="Clip-7"></g>
                        <polygon id="Fill-6" fill="#FFFFFF" mask="url(#mask-2)" points="54.6191397 19.5261244 58.6932818 19.5261244 58.6932818 6.87186603 54.6191397 6.87186603"></polygon>
                        <path d="M64.957216,15.4173397 C65.1354664,16.5012632 66.1285065,16.9046124 67.2234316,16.9046124 C68.2929338,16.9046124 68.878434,16.4509282 68.878434,15.8962871 C68.878434,15.4677703 68.5475495,15.1400191 67.6054519,14.9636555 L65.0080619,14.459445 C62.6399613,14.0310239 61.2904205,12.7705455 61.2904205,10.7790622 C61.2904205,8.18279426 63.5567327,6.49389474 66.7905655,6.49389474 C69.9735524,6.49389474 72.0869406,7.93073684 72.5961721,10.1237512 L68.878434,10.854756 C68.7512228,10.0733206 67.9873755,9.36748325 66.739623,9.36748325 C65.6446979,9.36748325 65.2881972,9.89686124 65.2881972,10.3506411 C65.2881972,10.7034641 65.4410246,11.0564785 66.2559111,11.2328421 L69.260551,11.8379139 C71.6794973,12.3420287 72.799942,13.7788708 72.799942,15.6442297 C72.799942,18.4422201 70.3554761,19.9043254 66.9942388,19.9043254 C63.9895022,19.9043254 61.4177284,18.8204019 60.9848623,16.2239426 L64.957216,15.4173397 Z" id="Fill-8" fill="#FFFFFF" mask="url(#mask-2)"></path>
                        <path d="M84.4369261,18.9715598 C83.4438859,19.5009378 82.3998067,19.9042871 80.9483809,19.9042871 C77.7654906,19.9042871 75.8557757,18.1902201 75.8557757,14.862756 L75.8557757,10.073378 L73.5386177,10.073378 L73.5386177,6.87194258 L75.8557757,6.87194258 L75.8557757,3.14122488 L79.9299178,3.14122488 L79.9299178,6.87194258 L83.698405,6.87194258 L83.698405,10.073378 L79.9299178,10.073378 L79.9299178,14.4595024 C79.9299178,15.7703158 80.5664572,16.2995981 81.6359594,16.2995981 C82.1960367,16.2995981 82.9600773,16.0979713 83.4947318,15.7954833 L84.4369261,18.9715598 Z" id="Fill-9" fill="#FFFFFF" mask="url(#mask-2)"></path>
                        <path d="M88.9696085,11.7621914 L94.2405607,11.7621914 C93.8585404,10.4010431 92.8400773,9.77080383 91.6687869,9.77080383 C90.5229193,9.77080383 89.3515321,10.4765455 88.9696085,11.7621914 L88.9696085,11.7621914 Z M98.2637603,14.232622 L88.8932431,14.232622 C89.2243209,15.7449665 90.2683035,16.6776938 91.6432673,16.6776938 C92.5854616,16.6776938 93.68029,16.4508995 94.3678685,15.2156842 L97.9837216,15.946689 C96.8887965,18.6186507 94.5715418,19.9042967 91.6432673,19.9042967 C87.9510488,19.9042967 84.8954664,17.2070718 84.8954664,13.1990335 C84.8954664,9.21635407 87.9510488,6.49386603 91.6687869,6.49386603 C95.2845433,6.49386603 98.1873949,9.06496651 98.2637603,13.1990335 L98.2637603,14.232622 Z" id="Fill-10" fill="#FFFFFF" mask="url(#mask-2)"></path>
                        <path d="M113.33827,11.7621914 L113.33827,19.5262105 L109.289551,19.5262105 L109.289551,12.6193206 C109.289551,11.1320478 108.398299,10.1237225 107.0997,10.1237225 C105.495544,10.1237225 104.451464,11.2077416 104.451464,13.6528134 L104.451464,19.5262105 L100.377322,19.5262105 L100.377322,6.87185646 L104.451464,6.87185646 L104.451464,8.08190431 C105.419082,7.07357895 106.768623,6.49386603 108.372876,6.49386603 C111.352093,6.49386603 113.33827,8.58611483 113.33827,11.7621914" id="Fill-11" fill="#FFFFFF" mask="url(#mask-2)"></path>
                        <path d="M125.586225,18.9715598 C124.593185,19.5009378 123.549106,19.9042871 122.09768,19.9042871 C118.91479,19.9042871 117.005075,18.1902201 117.005075,14.862756 L117.005075,10.073378 L114.687917,10.073378 L114.687917,6.87194258 L117.005075,6.87194258 L117.005075,3.14122488 L121.079217,3.14122488 L121.079217,6.87194258 L124.847704,6.87194258 L124.847704,10.073378 L121.079217,10.073378 L121.079217,14.4595024 C121.079217,15.7703158 121.715756,16.2995981 122.785162,16.2995981 C123.345336,16.2995981 124.109377,16.0979713 124.644031,15.7954833 L125.586225,18.9715598 Z" id="Fill-12" fill="#FFFFFF" mask="url(#mask-2)"></path>
                        <polygon id="Fill-13" fill="#FFFFFF" mask="url(#mask-2)" points="127.343258 19.5261244 131.4174 19.5261244 131.4174 6.87186603 127.343258 6.87186603"></polygon>
                        <path d="M143.945404,13.1989952 C143.945404,11.258134 142.468458,9.92215311 140.813359,9.92215311 C139.030855,9.92215311 137.732257,11.258134 137.732257,13.1989952 C137.732257,15.165311 139.030855,16.4760287 140.813359,16.4760287 C142.468458,16.4760287 143.945404,15.165311 143.945404,13.1989952 L143.945404,13.1989952 Z M148.019449,19.5261722 L143.945404,19.5261722 L143.945404,18.5178469 C142.952363,19.4001435 141.628149,19.9042584 139.972953,19.9042584 C136.58639,19.9042584 133.73448,17.2071292 133.73448,13.1989952 C133.73448,9.21631579 136.58639,6.49392344 139.972953,6.49392344 C141.628149,6.49392344 142.952363,6.99803828 143.945404,7.88023923 L143.945404,6.87191388 L148.019449,6.87191388 L148.019449,19.5261722 Z" id="Fill-14" fill="#FFFFFF" mask="url(#mask-2)"></path>
                        <polygon id="Fill-15" fill="#FFFFFF" mask="url(#mask-2)" points="150.97332 19.5262201 155.047463 19.5262201 155.047463 1.37674641 150.97332 1.37674641"></polygon>
                        <polygon id="Fill-16" fill="#FFFFFF" mask="url(#mask-2)" points="158.204737 19.5261244 162.278879 19.5261244 162.278879 6.87186603 158.204737 6.87186603"></polygon>
                        <path d="M168.542697,15.4173397 C168.720947,16.5012632 169.713987,16.9046124 170.808913,16.9046124 C171.878415,16.9046124 172.464108,16.4509282 172.464108,15.8962871 C172.464108,15.4677703 172.13303,15.1400191 171.190933,14.9636555 L168.593639,14.459445 C166.225442,14.0310239 164.875901,12.7705455 164.875901,10.7790622 C164.875901,8.18279426 167.142214,6.49389474 170.376046,6.49389474 C173.559033,6.49389474 175.672421,7.93073684 176.181653,10.1237512 L172.464108,10.854756 C172.336704,10.0733206 171.572856,9.36748325 170.325007,9.36748325 C169.230179,9.36748325 168.873678,9.89686124 168.873678,10.3506411 C168.873678,10.7034641 169.026506,11.0564785 169.841392,11.2328421 L172.846032,11.8379139 C175.265075,12.3420287 176.385423,13.7788708 176.385423,15.6442297 C176.385423,18.4422201 173.940957,19.9043254 170.57972,19.9043254 C167.57508,19.9043254 165.003306,18.8204019 164.570343,16.2239426 L168.542697,15.4173397 Z" id="Fill-17" fill="#FFFFFF" mask="url(#mask-2)"></path>
                        <path d="M199.914094,11.6109856 L199.914094,19.526201 L195.865375,19.526201 L195.865375,12.4680191 C195.865375,11.031177 194.923277,10.1237129 193.726467,10.1237129 C192.224099,10.1237129 191.231058,11.2077321 191.231058,13.3250526 L191.231058,19.526201 L187.156916,19.526201 L187.156916,12.4680191 C187.156916,11.031177 186.214819,10.1237129 184.992586,10.1237129 C183.51564,10.1237129 182.54812,11.2077321 182.54812,13.3250526 L182.54812,19.526201 L178.473881,19.526201 L178.473881,6.87194258 L182.54812,6.87194258 L182.54812,8.03155981 C183.413852,7.07356938 184.661508,6.49385646 186.316607,6.49385646 C188.099014,6.49385646 189.626805,7.25002871 190.492634,8.63644019 C191.511194,7.32572249 193.038888,6.49385646 195.025162,6.49385646 C197.749667,6.49385646 199.914094,8.53567464 199.914094,11.6109856" id="Fill-18" fill="#FFFFFF" mask="url(#mask-2)"></path>
                        <path d="M162.925935,4.35573206 L162.925935,4.35582775 L160.509792,0.213052632 C160.439517,0.0923827751 160.308342,0.0173588517 160.167598,0.0173588517 C160.027047,0.0173588517 159.895872,0.0921913876 159.825404,0.212956938 L157.409261,4.35573206 C157.338695,4.476689 157.338695,4.62664115 157.409261,4.74711962 C157.479536,4.86778947 157.61071,4.9427177 157.751358,4.9427177 L162.583741,4.9427177 C162.724389,4.9427177 162.855563,4.86778947 162.925839,4.747311 C162.996404,4.62664115 162.996404,4.476689 162.925935,4.35573206" id="Fill-19" fill="#FEDA01" mask="url(#mask-2)"></path>
                        <path d="M129.313485,0.400889952 C127.848139,0.400889952 126.700338,1.52615311 126.700338,2.96270813 C126.700338,4.41792344 127.799323,5.474 129.313485,5.474 C130.817883,5.474 131.952344,4.39438278 131.952344,2.96270813 C131.952344,1.52615311 130.793233,0.400889952 129.313485,0.400889952" id="Fill-20" fill="#91D3ED" mask="url(#mask-2)"></path>
                        <path d="M59.3734848,2.66184689 L57.0258772,0.337827751 C56.9544418,0.26691866 56.8542001,0.229215311 56.7535718,0.228736842 C56.6536201,0.230363636 56.559565,0.269885167 56.4886129,0.340124402 L54.0669599,2.73754067 C53.9960077,2.80768421 53.9560851,2.90088995 53.9544038,2.99974163 C53.9529918,3.10031579 53.9931078,3.19849761 54.0646399,3.269311 L56.4122475,5.59342584 C56.4823296,5.66289952 56.5792847,5.70232536 56.678753,5.70232536 L56.6845529,5.70232536 C56.7844079,5.70088995 56.8785597,5.66136842 56.9495118,5.59103349 L59.3711648,3.19371292 C59.442117,3.12347368 59.4820396,3.03026794 59.4836244,2.93132057 C59.4850362,2.83084211 59.4450169,2.7324689 59.3734848,2.66184689" id="Fill-21" fill="#EF4832" mask="url(#mask-2)"></path>
                    </g>
                </g>
            </g>
        </g>
    </g>
</svg>