<?xml version="1.0" encoding="UTF-8"?>
<svg width="114px" height="112px" viewBox="0 0 114 112" version="1.1" xmlns="http://www.w3.org/2000/svg" xmlns:xlink="http://www.w3.org/1999/xlink">
    <!-- Generator: Sketch 55.2 (78181) - https://sketchapp.com -->
    <title>Primary Logo@1x</title>
    <desc>Created with Sketch.</desc>
    <g id="All-Web" stroke="none" stroke-width="1" fill="none" fill-rule="evenodd">
        <g id="-Maxistentialism" transform="translate(-27.000000, -96.000000)">
            <g id="Top-Hero">
                <g id="Primary-Logo" transform="translate(27.000000, 96.000000)">
                    <polygon id="Fill-1" fill="#FFFFFF" points="38.863557 27 34.5451313 25.6023561 37.8148962 16.4123256 29.4708382 23.9601171 27.4196971 23.2961076 25.6065994 12.4035973 22.3184257 21.6450897 18 20.2474458 24.1366017 3 28.5089839 4.41520143 30.6891446 17.3212331 40.654596 8.34628289 45 9.75270553"></polygon>
                    <g id="Group-30">
                        <path d="M53.1008299,23.9910689 C53.7918729,21.9539133 52.7336112,20.0310911 51.0141693,19.4476022 C49.1623669,18.8190022 47.3376277,19.76338 46.6464291,21.8005356 C45.9462096,23.8641356 46.8285609,25.6976689 48.6802077,26.3261133 C50.3996496,26.9097578 52.4006103,26.0546689 53.1008299,23.9910689 L53.1008299,23.9910689 Z M55.0801711,32.06798 L50.8477466,30.63158 L51.2067219,29.5733356 C49.8608756,30.1492022 48.3058345,30.2114244 46.5863925,29.6279356 C43.0681858,28.4338911 41.0659808,24.5974244 42.4933276,20.3908911 C43.9116533,16.2109578 47.8437393,14.3592244 51.3619461,15.5532689 C53.081388,16.1367578 54.2774539,17.13278 54.9949378,18.4088022 L55.3539131,17.3505578 L59.5863377,18.7869578 L55.0801711,32.06798 Z" id="Fill-2" fill="#FFFFFF"></path>
                        <polygon id="Fill-4" fill="#FFFFFF" points="70.5543395 37.4498911 65.6870202 35.7980467 64.4491153 31.0999578 60.5815765 34.0653133 55.7408537 32.4223356 62.2868647 27.4748911 60.2560412 19.1148689 65.096764 20.7578467 66.262345 25.7558467 70.2022078 22.49058 75.0695271 24.1424244 68.344495 29.5307133"></polygon>
                        <path d="M57.8080412,66.4322244 L51.9622498,53.68398 L56.0248299,51.82058 L61.8706213,64.5688244 L57.8080412,66.4322244 Z M54.6315453,47.9110022 C55.2255344,49.2060022 54.6777393,50.6252911 53.3066963,51.2542022 C51.9353422,51.8831133 50.527904,51.3606022 49.9340705,50.0656022 C49.3634118,48.8211578 49.8393495,47.3119578 51.2105481,46.6832022 C52.5815911,46.0542911 54.0608866,46.6665578 54.6315453,47.9110022 L54.6315453,47.9110022 Z" id="Fill-6" fill="#FFFFFF"></path>
                        <path d="M65.4907814,58.1104533 C66.1692261,59.1209422 67.3460056,59.0730311 68.4377073,58.5722978 C69.5042123,58.0830756 69.8785856,57.3581867 69.6222636,56.7994311 C69.4244228,56.3677644 68.9428857,56.1888756 67.9219525,56.44212 L65.0989882,57.1222089 C62.5396561,57.7736756 60.611797,57.12112 59.6918061,55.11492 C58.492474,52.4994089 59.9720806,49.76132 63.1967924,48.2822978 C66.3706442,46.8264533 69.1419708,47.3072756 70.6627942,49.2837644 L67.2934347,51.7205422 C66.8053651,50.9914533 65.7177073,50.6297867 64.473581,51.20052 C63.3815682,51.7012533 63.2706716,52.39752 63.4801776,52.8546978 C63.643334,53.2102978 63.9586039,53.4958978 64.8527759,53.3009867 L68.1283477,52.5362756 C70.7735353,51.9376978 72.5544136,52.8727422 73.4162343,54.7520089 C74.708732,57.5706756 72.9466735,60.1617644 69.5950449,61.69912 C66.5986588,63.0732978 63.5335261,63.1576089 61.9024282,60.7399644 L65.4907814,58.1104533 Z" id="Fill-8" fill="#FFFFFF"></path>
                        <path d="M86.3753359,52.78154 C85.6295445,53.7691622 84.7748784,54.6528733 83.3274676,55.3167844 C80.1536158,56.7726289 77.4574127,55.9192511 75.9202581,52.5671844 L73.7077695,47.7421622 L71.3971382,48.8019622 L69.9181538,45.5768289 L72.2287851,44.5170289 L70.5054548,40.7586511 L74.5680348,38.8952511 L76.2915207,42.6536289 L80.0494072,40.9299178 L81.5282361,44.1550511 L77.7703496,45.8787622 L79.7965069,50.2974733 C80.4021611,51.6179844 81.2815573,51.8600289 82.3479068,51.3709622 C82.9065893,51.1146067 83.5750797,50.5620733 83.9684283,50.0128067 L86.3753359,52.78154 Z" id="Fill-10" fill="#FFFFFF"></path>
                        <path d="M87.2008546,43.6276089 L92.4568565,41.2168089 C91.4471218,40.0202756 90.1403148,39.8511867 88.9724008,40.38692 C87.8296835,40.9109867 86.9877714,42.1577644 87.2008546,43.6276089 L87.2008546,43.6276089 Z M97.609894,41.86532 L88.2658043,46.1513422 C89.2946698,47.5233422 90.7664996,47.9856533 92.1376982,47.3567422 C93.0771309,46.9258533 94.0641575,46.1964533 94.179098,44.6376311 L98.1223825,43.7201644 C98.2650083,46.9129422 96.5482105,49.2678978 93.6281922,50.6072311 C89.9463624,52.2959422 85.6534347,50.9762089 83.8017878,46.9384533 C81.9619617,42.9262089 83.7513944,38.7859422 87.4585765,37.0855644 C91.0640385,35.4318533 95.1465271,36.6943422 97.1324008,40.8241867 L97.609894,41.86532 Z" id="Fill-12" fill="#FFFFFF"></path>
                        <path d="M110.408716,32.6638978 L113.995359,40.4855422 L109.958131,42.3372756 L106.767481,35.37912 C106.080327,33.8808089 104.725926,33.2727422 103.43094,33.8666533 C101.831415,34.6004089 101.290931,36.1698089 102.420583,38.6331867 L105.133739,44.5500533 L101.071159,46.4134533 L95.2253679,33.6652089 L99.2881035,31.8018089 L99.8470971,33.0207422 C100.346054,31.5624089 101.423913,30.3612089 103.023749,29.6274533 C105.994316,28.2649422 108.941397,29.4642756 110.408716,32.6638978" id="Fill-14" fill="#FFFFFF"></path>
                        <path d="M20.7693962,81.5118422 C19.6798719,82.0985978 18.5346661,82.5456644 16.942452,82.5456644 C13.4505307,82.5456644 11.3554712,80.6458644 11.3554712,76.9579533 L11.3554712,71.6497756 L8.81340349,71.6497756 L8.81340349,68.1015533 L11.3554712,68.1015533 L11.3554712,63.9668867 L15.8249314,63.9668867 L15.8249314,68.1015533 L19.9592132,68.1015533 L19.9592132,71.6497756 L15.8249314,71.6497756 L15.8249314,76.5110422 C15.8249314,77.9637756 16.5232846,78.5503756 17.6964868,78.5503756 C18.311162,78.5503756 19.1491857,78.3268422 19.7358646,77.99162 L20.7693962,81.5118422 Z" id="Fill-17" fill="#FFFFFF"></path>
                        <path d="M21.7872187,82.1264889 L26.2566789,82.1264889 L26.2566789,68.1016 L21.7872187,68.1016 L21.7872187,82.1264889 Z M26.6198536,63.9669333 C26.6198536,65.3916667 25.5303294,66.4533333 24.0219488,66.4533333 C22.5134126,66.4533333 21.4518847,65.3916667 21.4518847,63.9669333 C21.4518847,62.5978889 22.5134126,61.4245333 24.0219488,61.4245333 C25.5303294,61.4245333 26.6198536,62.5978889 26.6198536,63.9669333 L26.6198536,63.9669333 Z" id="Fill-19" fill="#FFFFFF"></path>
                        <path d="M39.6360833,75.1140133 C39.6360833,72.9628356 38.0160284,71.4821022 36.2003102,71.4821022 C34.2449214,71.4821022 32.8203742,72.9628356 32.8203742,75.1140133 C32.8203742,77.2931911 34.2449214,78.74608 36.2003102,78.74608 C38.0160284,78.74608 39.6360833,77.2931911 39.6360833,75.1140133 L39.6360833,75.1140133 Z M44.1055435,82.1264578 L39.6360833,82.1264578 L39.6360833,81.0089467 C38.5467146,81.9867689 37.0941711,82.5455244 35.2784529,82.5455244 C31.563183,82.5455244 28.4344364,79.5562133 28.4344364,75.1140133 C28.4344364,70.6999689 31.563183,67.6826578 35.2784529,67.6826578 C37.0941711,67.6826578 38.5467146,68.2414133 39.6360833,69.21908 L39.6360833,68.1015689 L44.1055435,68.1015689 L44.1055435,82.1264578 Z" id="Fill-21" fill="#FFFFFF"></path>
                        <polygon id="Fill-22" fill="#FFFFFF" points="46.8002379 82.1264889 51.2695426 82.1264889 51.2695426 62.0111333 46.8002379 62.0111333"></polygon>
                        <path d="M45.182345,109.438093 L39.1012288,96.8006044 L43.1286579,94.8620711 L49.2097741,107.499716 L45.182345,109.438093 Z M41.663205,90.9787822 C42.2809909,92.2627378 41.7596368,93.6918267 40.4004145,94.3460933 C39.0411922,95.00036 37.6242663,94.5039822 37.0066359,93.2201822 C36.412958,91.9866267 36.8605883,90.4688711 38.2198107,89.81476 C39.5791885,89.1604933 41.0696826,89.7452267 41.663205,90.9787822 L41.663205,90.9787822 Z" id="Fill-23" fill="#FFFFFF"></path>
                        <path d="M52.5174173,100.624362 C53.2145261,101.622096 54.3900614,101.552407 55.472431,101.031451 C56.5296039,100.522629 56.8904456,99.79074 56.6240138,99.2369622 C56.4180851,98.8090289 55.9332819,98.6391622 54.9173258,98.9112289 L52.1075819,99.6434289 C49.5605371,100.34234 47.6210129,99.7257178 46.6638491,97.73694 C45.4163011,95.1439844 46.8447366,92.3789844 50.0416076,90.8403844 C53.1880851,89.3258956 55.9676551,89.7552289 57.5248738,91.7030956 L54.2012416,94.20194 C53.6999516,93.4821844 52.6054502,93.14074 51.3722114,93.7344956 C50.2898418,94.2554511 50.1918546,94.9535844 50.4097594,95.4067178 C50.5794484,95.7592067 50.900162,96.0388956 51.7902901,95.8274956 L55.0512416,95.0021178 C57.6849195,94.3546956 59.4827512,95.2566067 60.3792562,97.11954 C61.7237027,99.9137844 60.0100156,102.536918 56.6874722,104.136184 C53.717216,105.56574 50.6541053,105.706984 48.9783688,103.319984 L52.5174173,100.624362 Z" id="Fill-24" fill="#FFFFFF"></path>
                        <path d="M81.1536607,82.2609044 L84.9572746,90.1656156 L80.9550422,92.0920156 L77.56313,85.0431711 C76.8728647,83.6081711 75.505399,83.1502156 74.3223981,83.7195489 C72.8371922,84.4344822 72.3763413,85.9894156 73.3938528,88.1040378 L76.3740632,94.2970156 L72.3464786,96.2353933 L68.9547219,89.1865489 C68.2643011,87.7515489 66.8968354,87.2935933 65.6884822,87.8752156 C64.2287841,88.57786 63.79313,90.12066 64.8104859,92.2352822 L67.7905408,98.42826 L63.7631117,100.366638 L57.682151,87.7291489 L61.7094246,85.7906156 L62.2667073,86.9487267 C62.6622334,85.5801489 63.6170641,84.4075711 65.2532947,83.6199933 C67.0151977,82.7719044 68.888775,82.8002156 70.4108427,83.7729044 C70.7878601,81.9791933 71.8983816,80.4216156 73.8617027,79.4766156 C76.5549507,78.1803711 79.6757649,79.1896156 81.1536607,82.2609044" id="Fill-25" fill="#FFFFFF"></path>
                        <path d="M46.7433276,55.1008889 L31.9583047,29.4892889 C31.8222114,29.2534667 31.5705554,29.1081778 31.2983687,29.1081778 C31.0260266,29.1081778 30.7745261,29.2534667 30.6382773,29.4892889 L15.8534099,55.1008889 C15.7173166,55.3367111 15.7173166,55.6272889 15.8534099,55.8631111 C15.9895032,56.0989333 16.2413147,56.2442222 16.5135014,56.2442222 L46.0833916,56.2442222 C46.3555783,56.2442222 46.6070787,56.0989333 46.7433276,55.8631111 C46.8795764,55.6272889 46.8795764,55.3367111 46.7433276,55.1008889" id="Fill-26" fill="#FEDA01"></path>
                        <path d="M38.4660851,110.938956 L28.7386011,89.2845333 C28.6172837,89.0143333 28.3485188,88.8404222 28.0522242,88.8404222 L10.4800101,88.8404222 C10.1837155,88.8404222 9.91510614,89.0143333 9.79347759,89.2845333 L0.0661491309,110.938956 C-0.0385260751,111.171822 -0.0179954255,111.441867 0.120741995,111.656067 C0.259479415,111.870578 0.497292773,112 0.752526076,112 L37.7797082,112 C38.035097,112 38.2729104,111.870578 38.4114923,111.656067 C38.5502297,111.441867 38.5707603,111.171822 38.4660851,110.938956" id="Fill-27" fill="#D9C3ED"></path>
                        <path d="M110.689411,70.3534689 L94.1802801,53.84218 C93.8965838,53.5581356 93.394205,53.5581356 93.1105088,53.84218 L76.6012224,70.3534689 C76.4592187,70.4953356 76.3795847,70.6877578 76.3795847,70.88858 C76.3795847,71.0892467 76.4592187,71.2816689 76.6012224,71.4235356 L93.1105088,87.9348244 C93.2581117,88.0826022 93.4517531,88.1564911 93.6453944,88.1564911 C93.8390358,88.1564911 94.0326771,88.0826022 94.1802801,87.9348244 L110.689411,71.4235356 C110.984928,71.1281356 110.984928,70.6488689 110.689411,70.3534689" id="Fill-28" fill="#EF4832"></path>
                        <path d="M88.8629818,0.104564444 C80.8928903,0.104564444 74.4086268,6.58936444 74.4086268,14.5604978 C74.4086268,22.5314756 80.8928903,29.0164311 88.8629818,29.0164311 C96.8329178,29.0164311 103.317026,22.5314756 103.317026,14.5604978 C103.317026,6.58936444 96.8329178,0.104564444 88.8629818,0.104564444" id="Fill-29" fill="#91D3ED"></path>
                    </g>
                </g>
            </g>
        </g>
    </g>
</svg>