
<svg width="108px" height="91px" viewBox="0 0 108 91" version="1.1" xmlns="http://www.w3.org/2000/svg" xmlns:xlink="http://www.w3.org/1999/xlink">
    <defs>
        <polygon id="path-1" points="2.38993711e-05 0.0587075472 75.8831321 0.0587075472 75.8831321 38.1 2.38993711e-05 38.1"></polygon>
    </defs>
    <g id="All-Web" stroke="none" stroke-width="1" fill="none" fill-rule="evenodd">
        <g id="Success-State" transform="translate(-669.000000, -317.000000)">
            <g id="Email-Updates">
                <g id="Group-21" transform="translate(660.000000, 317.000000)">
                    <path d="M114.328126,23.625222 C109.957622,6.9311744 92.7964289,-3.24144465 76.0091354,0.938912493 C59.2230344,5.11926964 48.8600069,22.1460553 52.8572088,38.9329601 C52.8637684,38.977603 52.872117,39.0216506 52.8834473,39.0662934 L55.351062,48.940103 C55.53175,49.6645077 56.2670253,50.1049839 56.9927592,49.9240315 L115.849961,35.2674839 C116.575695,35.0865315 117.016979,34.3531982 116.835695,33.6287934 L114.367484,23.7555792 C114.35675,23.7109363 114.343034,23.6674839 114.328126,23.625222" id="Fill-22" fill="#F99F00"></path>
                    <path d="M81.2382363,22.9419482 L78.6907133,19.1449244 L81.7003922,18.3955196 L81.2382363,22.9419482 Z M82.0176399,28.3669482 C82.1571812,28.5746863 82.4124106,28.6729006 82.655117,28.6121863 C82.8978234,28.5520673 83.0773188,28.3455196 83.102961,28.0967101 L84.3212638,16.1157577 C84.3409427,15.9240911 84.2652088,15.7342101 84.1191078,15.6080196 C83.9730069,15.4812339 83.7744289,15.4336149 83.5865849,15.4806387 L75.6541996,17.4562339 C75.4657592,17.5026625 75.3125023,17.6377815 75.243328,17.8181387 C75.1735574,17.9984958 75.1962179,18.2008768 75.3041537,18.3615911 L82.0176399,28.3669482 Z" id="Fill-25" fill="#000000"></path>
                    <path d="M67.6146537,30.1837339 C68.5699748,29.9456387 69.1508005,28.9801625 68.9128647,28.0265911 C68.6743326,27.0730196 67.7070849,26.4932577 66.7517638,26.7307577 C65.7964427,26.968853 65.215617,27.9349244 65.4535528,28.8879006 C65.6914886,29.841472 66.6593326,30.4212339 67.6146537,30.1837339" id="Fill-27" fill="#000000"></path>
                    <path d="M96.5536649,22.553807 C97.508986,22.3157118 98.0898117,21.3502356 97.8518759,20.3966641 C97.6133438,19.4430927 96.6460961,18.8633308 95.690775,19.1008308 C94.7354539,19.338926 94.1546282,20.3049975 94.392564,21.2579737 C94.6304998,22.2115451 95.5983438,22.791307 96.5536649,22.553807" id="Fill-27-Copy" fill="#000000"></path>
                    <path d="M66.083039,23.8876625 C67.6156078,23.5061149 69.4373968,25.2918292 70.0611583,27.7870673 C70.6849198,30.2823053 69.9174427,32.7132577 68.3842776,33.0948053 C66.8517088,33.476353 65.0299198,31.6906387 64.4061583,29.1954006 C63.7829932,26.6995673 64.5504702,24.2692101 66.083039,23.8876625 M65.5075803,21.5858768 C62.6768005,22.2906387 61.1490023,25.9620673 62.1001491,29.7698053 C63.0518922,33.5769482 66.1289565,36.101353 68.9597363,35.3965911 C71.7899198,34.6912339 73.3189106,31.0204006 72.3671675,27.2126625 C71.4154243,23.4049244 68.3383601,20.8811149 65.5075803,21.5858768" id="Fill-29" fill="#000000"></path>
                    <path d="M94.8984932,16.6522458 C96.4519335,16.2653411 98.2981721,18.0724839 98.9296858,20.5980792 C99.5606032,23.1242696 98.7817959,25.5849839 97.2277592,25.9718887 C95.6737225,26.3587934 93.827484,24.5516506 93.1965666,22.0260553 C92.5650528,19.4998649 93.3450528,17.0391506 94.8984932,16.6522458 M94.3230344,14.3504601 C91.4707867,15.0605792 89.931062,18.7611744 90.8905574,22.5998649 C91.8500528,26.4385553 94.9509702,28.9837934 97.8026216,28.2736744 C100.654869,27.5635553 102.194594,23.8623649 101.235695,20.0242696 C100.2762,16.1855792 97.1746858,13.6403411 94.3230344,14.3504601" id="Fill-33" fill="#000000"></path>
                    <path d="M89.3946629,27.4611744 C89.1215436,27.280222 88.7524152,27.3540315 88.5705344,27.6272458 C87.3283785,29.4933173 85.4433785,30.8206982 83.2637913,31.3635553 C81.0830115,31.9064125 78.7948922,31.6183173 76.8198464,30.5534363 C76.5312225,30.3974839 76.1698464,30.505222 76.0148005,30.7933173 L75.4494794,31.8367696 C75.3743418,31.9748649 75.3582409,32.1373649 75.4029656,32.2879601 C75.4476904,32.4385553 75.5514519,32.5653411 75.6898005,32.6403411 C78.187828,33.9873649 81.0818188,34.3516506 83.8386537,33.6653411 C86.5960849,32.9784363 88.9790207,31.3004601 90.550351,28.9397458 C90.6374152,28.8087934 90.6690207,28.6486744 90.6380115,28.4945077 C90.606406,28.3403411 90.5157638,28.2046268 90.3839748,28.117722 L89.3946629,27.4611744 Z" id="Fill-35" fill="#000000"></path>
                    <g id="Video-ico" transform="translate(42.000000, 71.500000) rotate(15.000000) translate(-42.000000, -71.500000) translate(4.000000, 52.000000)">
                        <g id="Group-3" transform="translate(0.000000, 0.180915)">
                            <mask id="mask-2" fill="white">
                                <use xlink:href="#path-1"></use>
                            </mask>
                            <g id="Clip-2"></g>
                            <path d="M37.9414704,38.1 C58.8962,38.1 75.883156,21.0683415 75.883156,0.0587075472 L51.410678,0.0587075472 C51.410678,7.51720189 45.3803887,13.5633604 37.9414704,13.5633604 C30.5025522,13.5633604 24.4725019,7.51720189 24.4725019,0.0587075472 L2.38993711e-05,0.0587075472 C2.38993711e-05,21.0683415 16.9869799,38.1 37.9414704,38.1" id="Fill-1" fill="#2961FF" mask="url(#mask-2)"></path>
                        </g>
                        <path d="M63.1340843,9.77037358 C62.1439333,9.77037358 61.3416314,10.5750264 61.3416314,11.5675434 C61.3416314,12.5600604 62.1439333,13.3647132 63.1340843,13.3647132 C64.1239962,13.3647132 64.9265371,12.5600604 64.9265371,11.5675434 C64.9265371,10.5750264 64.1239962,9.77037358 63.1340843,9.77037358" id="Fill-4" fill="#000000"></path>
                        <path d="M12.7654667,9.77037358 C11.7755547,9.77037358 10.9730138,10.5750264 10.9730138,11.5675434 C10.9730138,12.5600604 11.7755547,13.3647132 12.7654667,13.3647132 C13.7556176,13.3647132 14.5579195,12.5600604 14.5579195,11.5675434 C14.5579195,10.5750264 13.7556176,9.77037358 12.7654667,9.77037358" id="Fill-6" fill="#000000"></path>
                        <path d="M29.623605,23.6959955 L46.1810893,23.6959955 C46.5111396,23.6959955 46.7785736,23.4278577 46.7785736,23.0969389 L46.7785736,17.6507955 C46.7785736,17.3201162 46.5111396,17.0517389 46.1810893,17.0517389 L44.9968755,17.0517389 C44.6668252,17.0517389 44.3993912,17.3201162 44.3993912,17.6507955 L44.3993912,21.3105521 L31.4053031,21.3105521 L31.4053031,17.6507955 C31.4053031,17.3201162 31.1378692,17.0517389 30.8078189,17.0517389 L29.623605,17.0517389 C29.2935547,17.0517389 29.0261208,17.3201162 29.0261208,17.6507955 L29.0261208,23.0969389 C29.0261208,23.4278577 29.2935547,23.6959955 29.623605,23.6959955" id="Fill-8" fill="#000000"></path>
                        <path d="M56.8301472,22.6552425 C56.5973673,22.4206519 56.2188013,22.4196934 55.9853044,22.6530858 C51.1342101,27.491067 44.6940465,30.1554311 37.8514176,30.1554311 C31.0087887,30.1554311 24.5688642,27.491067 19.7177698,22.6530858 C19.484034,22.4196934 19.1054679,22.4206519 18.872927,22.6552425 L18.037883,23.4970368 C17.926034,23.6096594 17.8634176,23.7622991 17.8638929,23.9211689 C17.8643736,24.0800387 17.9277069,24.2321991 18.040034,24.3441028 C23.3401975,29.6296991 30.3761723,32.5406349 37.8514176,32.5406349 C45.3269019,32.5406349 52.3628767,29.6296991 57.6628013,24.3441028 C57.7753673,24.2321991 57.8387006,24.0800387 57.8391813,23.9211689 C57.8396566,23.7622991 57.7770403,23.6096594 57.6651912,23.4970368 L56.8301472,22.6552425 Z" id="Fill-10" fill="#000000"></path>
                    </g>
                </g>
            </g>
        </g>
    </g>
</svg>
