<?xml version="1.0" encoding="UTF-8"?>
<svg width="98px" height="86px" viewBox="0 0 98 86" version="1.1" xmlns="http://www.w3.org/2000/svg" xmlns:xlink="http://www.w3.org/1999/xlink">
    <!-- Generator: Sketch 53.2 (72643) - https://sketchapp.com -->
    <title>Podcast ico@2x</title>
    <desc>Created with Sketch.</desc>
    <defs>
        <polygon id="path-1" points="0.000126724138 0 98 0 98 86 0.000126724138 86"></polygon>
    </defs>
    <g id="Page-1" stroke="none" stroke-width="1" fill="none" fill-rule="evenodd">
        <g id="Home" transform="translate(-133.000000, -1529.000000)">
            <g id="The-latest" transform="translate(0.000000, 860.000000)">
                <g id="Podcast-ico" transform="translate(133.000000, 669.000000)">
                    <g id="Group-3">
                        <mask id="mask-2" fill="white">
                            <use xlink:href="#path-1"></use>
                        </mask>
                        <g id="Clip-2"></g>
                        <path d="M97.6782474,82.376505 L51.0805147,1.20783168 C50.6509198,0.460653465 49.8580491,0 49.0001267,0 C48.1417819,0 47.3493336,0.460653465 46.9197388,1.20783168 L0.322006034,82.376505 C-0.107166379,83.1236832 -0.107166379,84.0449901 0.322006034,84.7921683 C0.751178448,85.5397723 1.54404914,86 2.40197155,86 L95.5978595,86 C96.4557819,86 97.2486526,85.5397723 97.6782474,84.7921683 C98.1074198,84.0449901 98.1074198,83.1236832 97.6782474,82.376505" id="Fill-1" fill="#FEDA01" mask="url(#mask-2)"></path>
                    </g>
                    <path d="M40.2485155,55.9380614 C40.4478948,56.2054277 40.760481,56.3629525 41.0924983,56.3629525 L55.9509034,56.3629525 C56.5329897,56.3629525 57.0048259,55.8886752 57.0048259,55.3028535 L57.0048259,53.1826554 C57.0048259,52.5972594 56.5329897,52.1229822 55.9509034,52.1229822 L45.3183259,52.1229822 L51.3630672,31.4565861 C51.5273862,30.8950317 51.207619,30.305804 50.6491879,30.1406158 L48.6266707,29.5424475 C48.3588603,29.4628337 48.0699293,29.4939129 47.8249293,29.6284475 C47.5790845,29.7634079 47.3974466,29.9903287 47.3180328,30.2602495 L40.0812397,55.0039822 C39.9874638,55.3245663 40.0495586,55.6702693 40.2485155,55.9380614" id="Fill-4" fill="#000000"></path>
                    <path d="M67.0091052,62.8904802 L30.1995448,62.8904802 C29.6174586,62.8904802 29.1456224,63.3647574 29.1456224,63.9501535 L29.1456224,66.0707772 C29.1456224,66.6561733 29.6174586,67.1304505 30.1995448,67.1304505 L67.0091052,67.1304505 C67.5911914,67.1304505 68.0630276,66.6561733 68.0630276,66.0707772 L68.0630276,63.9501535 C68.0630276,63.3647574 67.5911914,62.8904802 67.0091052,62.8904802" id="Fill-6" fill="#000000"></path>
                    <path d="M59.1449431,42.285604 C60.8916241,42.285604 62.3071328,40.8619208 62.3071328,39.1053069 C62.3071328,37.3491188 60.8916241,35.9258614 59.1449431,35.9258614 C57.3986845,35.9258614 55.9827534,37.3491188 55.9827534,39.1053069 C55.9827534,40.8619208 57.3986845,42.285604 59.1449431,42.285604" id="Fill-8" fill="#000000"></path>
                    <path d="M37.6492767,42.285604 C39.3959578,42.285604 40.8114664,40.8619208 40.8114664,39.1053069 C40.8114664,37.3491188 39.3959578,35.9258614 37.6492767,35.9258614 C35.9025957,35.9258614 34.4875095,37.3491188 34.4875095,39.1053069 C34.4875095,40.8619208 35.9025957,42.285604 37.6492767,42.285604" id="Fill-10" fill="#000000"></path>
                </g>
            </g>
        </g>
    </g>
</svg>