<?xml version="1.0" encoding="UTF-8"?>
<svg width="127px" height="64px" viewBox="0 0 127 64" version="1.1" xmlns="http://www.w3.org/2000/svg" xmlns:xlink="http://www.w3.org/1999/xlink">
    <!-- Generator: Sketch 53.2 (72643) - https://sketchapp.com -->
    <title>Video ico@2x</title>
    <desc>Created with Sketch.</desc>
    <defs>
        <polygon id="path-1" points="3.99371069e-05 0.0978459119 126.804708 0.0978459119 126.804708 63.5 3.99371069e-05 63.5"></polygon>
    </defs>
    <g id="Page-1" stroke="none" stroke-width="1" fill="none" fill-rule="evenodd">
        <g id="Home" transform="translate(-481.000000, -1539.000000)">
            <g id="The-latest" transform="translate(0.000000, 860.000000)">
                <g id="Video-ico" transform="translate(481.000000, 679.000000)">
                    <g id="Group-3" transform="translate(0.000000, 0.301525)">
                        <mask id="mask-2" fill="white">
                            <use xlink:href="#path-1"></use>
                        </mask>
                        <g id="Clip-2"></g>
                        <path d="M63.402194,63.5 C98.41865,63.5 126.804747,35.1139025 126.804747,0.0978459119 L85.9099487,0.0978459119 C85.9099487,12.5286698 75.8330179,22.6056006 63.402194,22.6056006 C50.9713701,22.6056006 40.8948387,12.5286698 40.8948387,0.0978459119 L3.99371069e-05,0.0978459119 C3.99371069e-05,35.1139025 28.3861374,63.5 63.402194,63.5" id="Fill-1" fill="#2961FF" mask="url(#mask-2)"></path>
                    </g>
                    <path d="M105.500378,16.283956 C103.845783,16.283956 102.505095,17.625044 102.505095,19.279239 C102.505095,20.933434 103.845783,22.274522 105.500378,22.274522 C107.154573,22.274522 108.495661,20.933434 108.495661,19.279239 C108.495661,17.625044 107.154573,16.283956 105.500378,16.283956" id="Fill-4" fill="#000000"></path>
                    <path d="M21.3317667,16.283956 C19.6775717,16.283956 18.3364836,17.625044 18.3364836,19.279239 C18.3364836,20.933434 19.6775717,22.274522 21.3317667,22.274522 C22.986361,22.274522 24.3270497,20.933434 24.3270497,19.279239 C24.3270497,17.625044 22.986361,16.283956 21.3317667,16.283956" id="Fill-6" fill="#000000"></path>
                    <path d="M49.5026031,39.4933258 L77.1710308,39.4933258 C77.7225623,39.4933258 78.1694585,39.0464296 78.1694585,38.4948981 L78.1694585,29.4179925 C78.1694585,28.8668604 77.7225623,28.4195648 77.1710308,28.4195648 L75.1921472,28.4195648 C74.6406157,28.4195648 74.1937195,28.8668604 74.1937195,29.4179925 L74.1937195,35.5175868 L52.4799145,35.5175868 L52.4799145,29.4179925 C52.4799145,28.8668604 52.0330182,28.4195648 51.4814868,28.4195648 L49.5026031,28.4195648 C48.9510717,28.4195648 48.5041755,28.8668604 48.5041755,29.4179925 L48.5041755,38.4948981 C48.5041755,39.0464296 48.9510717,39.4933258 49.5026031,39.4933258" id="Fill-8" fill="#000000"></path>
                    <path d="M94.966167,37.7587374 C94.5771796,37.3677531 93.9445758,37.3661557 93.5543903,37.7551431 C85.4479563,45.818445 74.6861041,50.2590519 63.251711,50.2590519 C51.8173179,50.2590519 41.0558651,45.818445 32.9494311,37.7551431 C32.5588462,37.3661557 31.9262425,37.3677531 31.5376544,37.7587374 L30.1422519,39.161728 C29.9553462,39.3494324 29.850711,39.6038318 29.8515097,39.8686148 C29.8523085,40.1333978 29.9581418,40.3869984 30.1458462,40.5735047 C39.0026984,49.3828318 50.7601827,54.2343915 63.251711,54.2343915 C75.7436387,54.2343915 87.501123,49.3828318 96.3575758,40.5735047 C96.5456796,40.3869984 96.6515129,40.1333978 96.6523116,39.8686148 C96.6531104,39.6038318 96.5484752,39.3494324 96.3615695,39.161728 L94.966167,37.7587374 Z" id="Fill-10" fill="#000000"></path>
                </g>
            </g>
        </g>
    </g>
</svg>