<?xml version="1.0" standalone="no"?>
<!DOCTYPE svg PUBLIC "-//W3C//DTD SVG 20010904//EN"
 "http://www.w3.org/TR/2001/REC-SVG-20010904/DTD/svg10.dtd">
<svg version="1.0" xmlns="http://www.w3.org/2000/svg"
 width="1016.000000pt" height="1016.000000pt" viewBox="0 0 1016.000000 1016.000000"
 preserveAspectRatio="xMidYMid meet">
<metadata>
Created by potrace 1.11, written by Peter Selinger 2001-2013
</metadata>
<g transform="translate(0.000000,1016.000000) scale(0.100000,-0.100000)"
fill="#000000" stroke="none">
<path d="M6600 10057 c-3 -3 -36 -7 -75 -11 -38 -3 -81 -8 -95 -11 -14 -3 -41
-8 -60 -11 -40 -5 -245 -60 -275 -73 -11 -5 -36 -15 -55 -21 -47 -17 -254
-113 -260 -121 -3 -3 -23 -16 -45 -27 -46 -24 -173 -112 -235 -162 -52 -43
-234 -225 -275 -275 -16 -20 -35 -42 -41 -48 -19 -22 -132 -192 -157 -237 -57
-104 -120 -237 -132 -282 -2 -5 -3 -9 -5 -10 -1 -2 -3 -10 -5 -18 -2 -8 -11
-35 -20 -60 -9 -25 -19 -58 -22 -75 -3 -16 -9 -38 -14 -47 -5 -10 -7 -18 -3
-18 3 0 2 -6 -3 -12 -5 -7 -10 -26 -11 -42 -1 -17 -8 -33 -15 -38 -9 -6 -9 -8
0 -8 8 0 9 -9 3 -31 -18 -62 -24 -157 -24 -349 1 -200 4 -234 33 -375 11 -53
18 -84 26 -112 16 -59 27 -110 28 -120 0 -7 5 -13 10 -13 5 0 7 -6 4 -14 -3
-8 -1 -16 4 -18 6 -2 11 -10 13 -18 3 -14 6 -24 23 -67 3 -10 7 -20 8 -23 4
-18 86 -176 121 -236 77 -131 215 -309 304 -392 83 -79 113 -104 181 -158 42
-33 93 -71 115 -84 21 -13 45 -30 52 -37 7 -7 20 -13 28 -13 8 0 14 -4 14 -9
0 -5 11 -12 25 -15 14 -4 25 -11 25 -16 0 -6 5 -10 12 -10 7 0 47 -18 90 -41
43 -22 78 -38 78 -35 0 3 16 -3 36 -14 19 -11 43 -21 52 -23 9 -1 22 -5 27 -8
10 -6 61 -20 70 -19 3 0 19 -7 35 -15 17 -9 30 -13 30 -11 0 3 11 1 25 -4 26
-10 61 -18 105 -25 61 -10 96 -16 110 -21 23 -8 196 -18 295 -17 99 1 310 16
310 23 0 2 20 6 69 14 21 3 42 8 46 11 3 2 20 7 36 9 53 10 69 14 97 25 15 6
27 7 27 4 0 -4 5 -2 12 5 7 7 22 12 35 12 13 0 23 4 23 8 0 4 21 14 48 21 26
8 54 18 62 22 8 4 51 26 95 47 44 22 96 49 115 60 19 12 49 29 65 38 17 9 32
20 35 23 3 4 29 22 58 41 28 18 52 38 52 43 0 6 3 8 6 4 4 -3 12 -1 19 6 7 7
40 36 73 65 102 89 212 204 212 222 0 5 7 10 15 10 8 0 15 7 15 15 0 8 3 15 8
15 4 0 18 17 32 38 14 20 27 39 31 42 10 9 98 148 111 174 6 14 16 26 21 26 6
0 7 3 4 6 -3 4 5 26 18 49 14 23 22 45 18 48 -3 4 -1 7 5 7 7 0 12 4 12 9 0 5
10 30 22 57 12 27 23 51 23 54 1 3 5 12 8 20 22 53 69 212 82 275 2 11 6 31 9
45 16 70 22 117 31 225 4 44 9 83 12 88 2 4 -1 7 -7 7 -6 0 -8 5 -5 10 11 18
6 166 -10 305 -18 159 -76 370 -145 530 -39 90 -114 235 -122 235 -4 0 -8 5
-8 10 0 16 -72 120 -83 120 -6 0 -8 3 -4 6 6 7 -93 135 -130 169 -13 11 -23
26 -23 33 0 7 -4 12 -8 12 -4 0 -35 26 -68 58 -50 47 -104 96 -159 140 -35 28
-243 163 -247 161 -2 -1 -27 13 -56 30 -29 17 -56 31 -59 31 -3 0 -35 14 -70
30 -34 17 -70 30 -78 30 -8 0 -15 4 -15 8 0 5 -6 9 -12 10 -20 1 -50 9 -83 22
-44 17 -195 53 -280 66 -22 4 -51 8 -65 11 -34 6 -385 15 -390 10z"/>
<path d="M2580 8281 c-15 -17 -31 -39 -35 -50 -3 -12 -11 -21 -17 -21 -6 0 -9
-3 -5 -6 3 -4 -7 -26 -24 -50 -16 -24 -27 -44 -24 -44 3 0 1 -6 -5 -12 -20
-24 -79 -128 -72 -128 4 0 2 -4 -4 -8 -6 -4 -21 -27 -35 -52 -13 -25 -27 -47
-30 -50 -4 -3 -9 -15 -13 -27 -4 -13 -12 -23 -17 -23 -5 0 -9 -4 -9 -9 0 -7
-30 -62 -121 -221 -8 -14 -18 -28 -22 -31 -5 -3 -7 -8 -6 -10 2 -2 -4 -15 -13
-29 -33 -55 -66 -115 -66 -124 0 -5 -4 -12 -9 -15 -8 -5 -56 -85 -121 -201
-13 -25 -40 -72 -60 -105 -19 -33 -46 -80 -60 -105 -13 -25 -30 -52 -37 -60
-6 -8 -24 -40 -40 -70 -15 -30 -30 -57 -34 -60 -3 -3 -15 -24 -26 -47 -11 -24
-23 -43 -27 -43 -5 0 -8 -6 -8 -14 0 -8 -6 -21 -12 -28 -18 -20 -47 -69 -59
-100 -6 -16 -16 -28 -22 -28 -6 0 -8 -3 -5 -6 4 -3 -4 -21 -17 -40 -13 -19
-30 -48 -37 -64 -7 -17 -16 -30 -20 -30 -5 0 -8 -4 -8 -9 0 -5 -20 -42 -43
-83 -24 -40 -52 -90 -61 -110 -10 -21 -22 -38 -27 -38 -5 0 -9 -9 -9 -19 0
-11 -3 -21 -7 -23 -10 -4 -42 -57 -50 -80 -3 -10 -9 -18 -14 -18 -5 0 -9 -9
-9 -20 0 -11 -3 -20 -7 -20 -5 0 -21 -26 -38 -58 -16 -31 -32 -59 -35 -62 -4
-3 -10 -12 -13 -20 -4 -8 -16 -28 -27 -45 -11 -16 -23 -37 -27 -45 -6 -14 -96
-172 -134 -235 -10 -16 -30 -52 -45 -80 -14 -27 -35 -62 -45 -77 -11 -14 -19
-28 -19 -31 0 -3 -29 -55 -65 -116 -36 -60 -65 -114 -65 -120 0 -5 -3 -11 -8
-13 -9 -4 -92 -147 -92 -159 0 -5 -4 -9 -10 -9 -5 0 -10 -5 -10 -11 0 -6 -16
-38 -37 -72 -53 -87 -43 -162 25 -188 30 -12 402 -18 402 -7 0 4 6 5 13 2 21
-8 157 -10 157 -2 0 4 7 5 15 2 21 -9 775 -10 775 -2 0 4 6 5 13 2 21 -8 157
-10 157 -2 0 4 6 5 14 2 22 -8 776 -10 776 -2 0 4 6 5 13 2 21 -8 157 -10 157
-2 0 4 7 5 15 2 21 -9 775 -10 775 -2 0 4 6 5 13 2 23 -8 157 -9 157 -1 0 5 5
5 10 2 10 -6 425 -9 587 -5 74 3 84 5 107 29 40 42 40 86 0 156 -19 33 -39 69
-44 80 -6 11 -24 43 -40 70 -16 28 -39 68 -51 90 -12 22 -28 48 -37 58 -8 9
-11 17 -6 17 5 0 4 4 -2 8 -6 4 -24 32 -41 62 -39 72 -141 248 -161 280 -9 14
-14 26 -11 26 2 1 -3 10 -12 20 -20 24 -78 126 -77 138 0 5 -4 12 -9 15 -10 7
-35 47 -83 136 -18 33 -37 63 -42 66 -5 3 -9 9 -8 13 0 4 -24 49 -55 101 -30
52 -55 99 -55 104 0 6 -4 11 -9 11 -5 0 -13 10 -17 23 -3 12 -12 29 -19 37 -6
8 -23 35 -36 60 -13 25 -30 53 -38 63 -8 9 -10 17 -5 17 5 0 4 4 -2 8 -12 8
-94 150 -94 163 0 5 -4 9 -10 9 -5 0 -10 4 -10 8 0 8 -149 272 -201 357 -11
17 -22 37 -26 45 -4 8 -35 63 -70 122 -35 59 -63 111 -63 117 0 6 -3 11 -8 11
-4 0 -13 15 -21 33 -8 17 -19 39 -26 47 -7 8 -24 35 -37 60 -14 25 -55 96 -91
158 -36 61 -63 112 -61 112 3 0 -4 10 -15 22 -11 11 -18 25 -15 30 3 4 1 8 -4
8 -5 0 -12 8 -16 18 -3 9 -14 31 -24 47 -38 60 -73 121 -90 155 -9 19 -19 37
-22 40 -3 3 -16 25 -29 50 -14 25 -31 51 -38 58 -7 7 -13 17 -13 22 0 5 -20
43 -45 83 -25 41 -45 80 -45 86 0 6 -3 11 -7 11 -5 0 -13 10 -19 23 -52 104
-77 127 -136 127 -30 0 -45 -7 -68 -29z"/>
<path d="M7755 5168 c-11 -5 -348 -337 -749 -738 -401 -402 -734 -730 -739
-730 -6 0 -8 -2 -5 -5 2 -3 -181 -191 -408 -418 -268 -269 -414 -422 -416
-438 -2 -13 1 -37 6 -54 6 -19 405 -425 1150 -1171 628 -627 1150 -1146 1161
-1152 29 -14 82 -8 107 14 12 11 531 529 1154 1152 786 786 1134 1142 1138
1160 3 15 4 36 2 47 -3 11 -5 23 -5 27 -2 13 -2301 2308 -2313 2310 -43 5 -65
4 -83 -4z"/>
<path d="M1818 3264 c-4 -3 -99 -7 -212 -8 l-205 -1 -30 -29 c-17 -17 -31 -38
-31 -48 0 -10 -4 -18 -8 -18 -4 0 -8 -10 -9 -22 -1 -11 -6 -24 -11 -27 -5 -3
-13 -17 -17 -30 -4 -13 -27 -66 -51 -118 -24 -52 -44 -95 -44 -97 0 -2 -19
-44 -42 -93 -23 -48 -43 -92 -44 -98 -1 -5 -19 -46 -39 -90 -20 -44 -43 -93
-50 -110 -7 -16 -30 -66 -50 -110 -21 -44 -38 -84 -40 -90 -1 -5 -19 -46 -41
-90 -21 -44 -39 -82 -39 -85 -3 -9 -22 -53 -49 -112 -14 -31 -26 -62 -26 -67
0 -6 -4 -11 -10 -11 -5 0 -10 -8 -10 -18 0 -10 -3 -22 -7 -26 -5 -4 -8 -11 -9
-14 0 -4 -12 -32 -26 -62 -62 -131 -86 -190 -80 -190 4 0 2 -4 -4 -8 -6 -4
-35 -61 -64 -127 -29 -66 -63 -142 -75 -170 -13 -27 -33 -72 -45 -100 -12 -27
-45 -99 -72 -160 -27 -60 -55 -123 -63 -140 -7 -16 -28 -61 -45 -100 -18 -38
-33 -76 -33 -82 0 -7 -4 -13 -9 -13 -4 0 -8 -4 -8 -9 0 -5 -13 -38 -29 -73
-16 -35 -38 -84 -50 -110 -30 -67 -54 -121 -95 -212 -20 -43 -36 -90 -36 -103
0 -35 29 -80 59 -93 18 -7 810 -9 2588 -8 l2563 3 26 27 c38 37 37 94 -3 175
-17 34 -28 64 -25 67 3 4 0 6 -6 6 -7 0 -11 3 -10 8 1 4 -8 27 -19 52 -11 25
-30 68 -43 95 -12 28 -32 73 -45 100 -12 28 -32 73 -45 100 -12 28 -31 68 -40
90 -10 22 -30 67 -46 100 -15 33 -28 62 -29 65 0 6 -31 73 -56 123 -10 21 -19
44 -19 52 0 8 -5 15 -12 15 -6 0 -8 3 -5 6 4 4 0 19 -8 33 -8 14 -29 58 -46
96 -59 133 -54 123 -148 328 -17 38 -31 74 -31 81 0 8 -7 19 -15 26 -9 7 -13
15 -11 17 3 3 -6 24 -18 46 -13 23 -27 53 -31 66 -4 13 -25 63 -47 110 -22 47
-47 102 -55 121 -8 19 -26 58 -39 85 -13 28 -24 56 -24 63 0 6 -5 12 -10 12
-6 0 -9 3 -8 8 1 8 -11 40 -44 110 -12 26 -23 49 -23 52 -2 6 -31 71 -80 175
-18 39 -38 87 -46 108 -7 20 -17 37 -21 37 -4 0 -8 7 -8 15 0 8 -15 46 -34 85
-19 39 -35 73 -35 75 0 3 -12 31 -27 63 -14 31 -42 93 -61 137 -50 115 -66
128 -153 129 -38 1 -70 5 -70 9 0 5 -5 5 -11 1 -16 -10 -309 -11 -309 -1 0 5
-5 5 -11 1 -16 -9 -269 -11 -269 -1 0 4 -5 5 -10 2 -16 -10 -110 -12 -110 -2
0 4 -5 5 -11 1 -18 -11 -289 -10 -289 1 0 7 -3 7 -8 0 -9 -13 -52 -15 -52 -3
0 5 -5 6 -10 3 -16 -10 -110 -12 -110 -2 0 4 -5 5 -11 1 -18 -11 -289 -10
-289 1 0 7 -3 7 -8 0 -9 -13 -52 -15 -52 -3 0 5 -5 6 -10 3 -16 -10 -110 -12
-110 -2 0 4 -5 5 -11 2 -16 -10 -229 -11 -232 -2 -1 5 -6 5 -9 1z"/>
</g>
</svg>
